<svg data-v-423bf9ae="" xmlns="http://www.w3.org/2000/svg" viewBox="0 0 226.68601984695928 60" class="font"><!----><!----><!----><g data-v-423bf9ae="" id="1f0abf6f-de14-4c44-b021-6a68f4fc020f" fill="#000000" transform="matrix(5.813953123029061,0,0,5.813953123029061,-2.6162797291319038,-1.8604643263912664)"><path d="M0.45 10.50L2.42 10.50C4.40 10.50 5.40 9.53 5.40 7.49L5.40 0.49L3.37 0.49L3.37 7.49C3.37 8.05 2.94 8.50 2.37 8.50L0.45 8.50L0.45 10.50L0.45 10.50ZM12.45 10.64L12.45 10.64C19.33 10.64 19.33 0.32 12.45 0.32C5.56 0.32 5.56 10.64 12.45 10.64ZM12.45 8.57L12.45 8.57C8.44 8.57 8.44 2.38 12.45 2.38C16.45 2.38 16.45 8.57 12.45 8.57ZM21.50 2.48L23.28 2.48C23.86 2.48 24.21 2.93 24.21 3.49C24.21 4.03 23.86 4.49 23.28 4.49L22.71 4.49L21.50 4.49L21.50 2.48L21.50 2.48ZM19.49 10.50L23.45 10.50C25.07 10.50 26.40 9.17 26.40 7.49C26.40 6.71 26.03 5.94 25.37 5.49C26.00 5.05 26.26 4.27 26.29 3.51C26.33 1.75 25.23 0.48 23.45 0.48L19.49 0.48L19.49 10.50L19.49 10.50L19.49 10.50ZM21.50 6.50L23.28 6.50C23.86 6.50 24.29 6.93 24.29 7.49C24.29 8.05 23.86 8.50 23.28 8.50L22.71 8.50L21.50 8.50L21.50 6.50L21.50 6.50ZM35.18 10.50L35.18 0.49L33.18 0.49L33.18 4.49L30.18 4.49L30.18 0.49L28.18 0.49L28.18 10.50L30.18 10.50L30.18 6.50L33.18 6.50L33.18 10.50L35.18 10.50L35.18 10.50ZM39.44 10.50L39.44 0.49L37.44 0.49L37.44 10.50L39.44 10.50L39.44 10.50Z"></path></g><!----><!----></svg>